<?xml version="1.0" encoding="UTF-8"?>
<svg version="1.1" viewBox="0 0 128 128" xmlns="http://www.w3.org/2000/svg">
<g transform="matrix(.80469 0 0 .80469 12.761 15.284)">
<svg width="128" height="121" data-background-color="#624a2e" viewBox="0 0 95 90" xmlns="http://www.w3.org/2000/svg" xmlns:xlink="http://www.w3.org/1999/xlink">
<g transform="translate(-.2405 .029826)">
<svg width="95.481" height="89.94" viewBox="0 0 95.481 89.94034740426154">
<svg width="95.481" height="89.94" viewBox="0 0 95.481 89.94034740426154">
<svg width="95.481" height="89.94" viewBox="0 0 95.481 89.94034740426154">
<svg width="95.481" height="89.94" viewBox="0 0 95.481 89.94034740426154">
<svg width="95.481" height="89.94" viewBox="0 0 95.481 89.94034740426154">
<svg width="95.481" height="89.94" viewBox="0 0 95.481 89.94034740426154">
<svg class="icon-icon-0" width="95.481" height="89.94" enable-background="new 0 0 60 60" data-fill-palette-color="accent" version="1.1" viewBox="2.455 4.271 54.628 51.458" xml:space="preserve" xmlns="http://www.w3.org/2000/svg" xmlns:xlink="http://www.w3.org/1999/xlink"><g fill="#fff" data-fill-palette-color="accent"><g data-fill-palette-color="accent"><polygon points="3.545 47.557 2.455 46.525 16.324 31.863 24.401 31.992 28.316 9.992 35.847 21.881 41.469 15.356 56.159 4.683 57.04 5.897 42.421 16.518 35.665 24.398 29.117 14.059 25.655 33.512 16.961 33.374" fill="#fff" data-fill-palette-color="accent"/></g><g data-fill-palette-color="accent"><polygon points="57.083 12.513 55.583 12.513 55.583 5.771 48.842 5.771 48.842 4.271 57.083 4.271" fill="#fff" data-fill-palette-color="accent"/></g><g data-fill-palette-color="accent"><rect x="3" y="54.229" width="54" height="1.5" fill="#fff" data-fill-palette-color="accent"/></g><g data-fill-palette-color="accent"><g fill="#fff" data-fill-palette-color="accent"><rect x="14.554" y="50.207" width="12.859" height="1.5" fill="#fff" data-fill-palette-color="accent"/></g></g><g data-fill-palette-color="accent"><g data-fill-palette-color="accent"><rect x="29.352" y="50.207" width="12.85" height="1.5" fill="#fff" data-fill-palette-color="accent"/></g><g data-fill-palette-color="accent"><rect x="29.352" y="46.181" width="12.85" height="1.5" fill="#fff" data-fill-palette-color="accent"/></g></g><g data-fill-palette-color="accent"><g data-fill-palette-color="accent"><rect x="44.141" y="50.207" width="12.859" height="1.5" fill="#fff" data-fill-palette-color="accent"/></g><g data-fill-palette-color="accent"><rect x="44.141" y="46.181" width="12.859" height="1.5" fill="#fff" data-fill-palette-color="accent"/></g><g data-fill-palette-color="accent"><rect x="44.141" y="42.153" width="12.859" height="1.5" fill="#fff" data-fill-palette-color="accent"/></g><g data-fill-palette-color="accent"><rect x="44.141" y="38.132" width="12.859" height="1.5" fill="#fff" data-fill-palette-color="accent"/></g></g></g></svg>
</svg>
</svg>
</svg>
</svg>
</svg>
</svg>
<rect width="95.481" height="89.94" fill="none" visibility="hidden"/>
</g>
</svg>
</g>
</svg>
