<?xml version="1.0" encoding="UTF-8"?>
<svg version="1.1" viewBox="0 0 1000 1000" xmlns="http://www.w3.org/2000/svg">
<rect width="1e3" height="1e3" fill="#fff"/>
<g transform="matrix(.7 0 0 .7 149.58 422.31)">
<svg width="1e3" height="222" data-background-color="#624a2e" viewBox="0 0 396 88" xmlns="http://www.w3.org/2000/svg" xmlns:xlink="http://www.w3.org/1999/xlink">
<g transform="translate(.24 -.005402)">
<svg width="395.52" height="88.011" viewBox="0 0 395.52 88.01080394894473">
<svg width="395.52" height="88.011" viewBox="0 0 539.8197245857766 120.12026685955736">
<g transform="translate(144.3 34.455)">
<svg width="395.52" height="51.211" viewBox="0 0 395.52 51.211172940534645">
<svg width="395.52" height="51.211" viewBox="0 0 395.52 51.211172940534645">
<svg width="395.52" height="51.211" viewBox="0 0 395.52 51.211172940534645">
<g>
<svg width="395.52" height="51.211" data-palette-color="#ffffff" viewBox="0.550000011920929 -35 274.9200134277344 35.599998474121094">
<path class="undefined-text-0" d="m0.55-34.45h20.55l-0.5 3.8h-7.65v30.65h-4.55v-30.65h-7.85v-3.8zm45.05 34.45h-5l-6.7-14.75q-0.35 0.05-1.05 0.05h-3.1v14.7h-4.55v-34.45h6.9q6.05 0 9 2.5t2.95 7.2q0 3.3-1.55 5.68-1.55 2.37-4.45 3.47l7.55 15.6zm-13.15-18.2q3.6 0 5.2-1.58 1.6-1.57 1.6-4.97 0-3.15-1.65-4.63-1.65-1.47-5.55-1.47h-2.3v12.65h2.7zm38 18.2h-4.65l-2.05-8.75h-10.3l-2.05 8.75h-4.5l8.95-34.45h5.65l8.95 34.45zm-11.85-30.65-4.3 18.25h8.6l-4.3-18.25zm22.49-3.8q4.2 0 7.28 1.32 3.07 1.33 5 5.1 1.92 3.78 1.92 10.63 0 9.75-3.8 13.57-3.8 3.83-9.65 3.83h-7.2v-34.45h6.45zm0.85 3.65h-2.75v27.2h2.95q2.5 0 4.33-1.1 1.82-1.1 2.95-4.13 1.12-3.02 1.12-8.57 0-5.65-1.17-8.58-1.18-2.92-3-3.87-1.83-0.95-4.43-0.95zm19.4-3.65h15.8l-0.5 3.65h-10.75v11.45h9.35v3.65h-9.35v12.05h11.45v3.65h-16v-34.45zm52.75 34.45h-5l-6.7-14.75q-0.35 0.05-1.05 0.05h-3.1v14.7h-4.55v-34.45h6.9q6.05 0 9 2.5t2.95 7.2q0 3.3-1.55 5.68-1.55 2.37-4.45 3.47l7.55 15.6zm-13.15-18.2q3.6 0 5.2-1.58 1.6-1.57 1.6-4.97 0-3.15-1.65-4.63-1.65-1.47-5.55-1.47h-2.3v12.65h2.7zm17.84-16.25h15.8l-0.5 3.65h-10.75v11.45h9.35v3.65h-9.35v12.05h11.45v3.65h-16v-34.45zm28.45 0q6.05 0 9.18 2.7 3.12 2.7 3.12 7.95 0 5.6-3.17 8.32-3.18 2.73-9.03 2.73h-2.25v12.75h-4.55v-34.45h6.7zm0.1 18.1q3.85 0 5.65-1.63 1.8-1.62 1.8-5.77 0-3.75-1.82-5.43-1.83-1.67-5.63-1.67h-2.25v14.5h2.25zm27.6-18.65q5.7 0 8.9 4.42 3.2 4.43 3.2 13.38 0 8.85-3.2 13.32-3.2 4.48-8.9 4.48t-8.93-4.4q-3.22-4.4-3.22-13.35 0-8.85 3.25-13.35t8.9-4.5zm0 3.7q-3.6 0-5.48 3.3-1.87 3.3-1.87 10.85 0 7.5 1.9 10.75t5.45 3.25q3.6 0 5.45-3.23 1.85-3.22 1.85-10.82 0-7.55-1.85-10.83-1.85-3.27-5.45-3.27zm38.55 31.3h-5l-6.7-14.75q-0.35 0.05-1.05 0.05h-3.1v14.7h-4.55v-34.45h6.9q6.05 0 9 2.5t2.95 7.2q0 3.3-1.55 5.68-1.55 2.37-4.45 3.47l7.55 15.6zm-13.15-18.2q3.6 0 5.2-1.58 1.6-1.57 1.6-4.97 0-3.15-1.65-4.63-1.65-1.47-5.55-1.47h-2.3v12.65h2.7zm14.59-16.25h20.55l-0.5 3.8h-7.65v30.65h-4.55v-30.65h-7.85v-3.8z" data-fill-palette-color="primary"/>
</svg>
</g>
</svg>
</svg>
</svg>
</g>
<svg width="120.12" height="120.12" viewBox="0 0 120.12026685955736 120.12026685955736">
<svg/>
<svg width="120.12" height="120.12" viewBox="0 0 120.12026685955736 120.12026685955736">
<path d="m0 60.06c0-33.17 26.89-60.06 60.06-60.06s60.06 26.89 60.06 60.06-26.89 60.06-60.06 60.06-60.06-26.89-60.06-60.06zm60.06 55.442c30.62 0 55.442-24.822 55.442-55.442s-24.822-55.442-55.442-55.442-55.442 24.822-55.442 55.442 24.822 55.442 55.442 55.442z" stroke="transparent" data-fill-palette-color="accent"/>
<g transform="translate(27.616 29.499)">
<svg width="64.888" height="61.123" viewBox="0 0 64.88809853330311 61.12271887924166">
<svg class="icon-x-0" width="64.888" height="61.123" enable-background="new 0 0 60 60" data-fill-palette-color="accent" version="1.1" viewBox="2.4549999237060547 4.270999908447266 54.62799835205078 51.45800018310547" xml:space="preserve" xmlns="http://www.w3.org/2000/svg" xmlns:xlink="http://www.w3.org/1999/xlink"><g fill="#fff" data-fill-palette-color="accent"><g data-fill-palette-color="accent"><polygon points="3.545 47.557 2.455 46.525 16.324 31.863 24.401 31.992 28.316 9.992 35.847 21.881 41.469 15.356 56.159 4.683 57.04 5.897 42.421 16.518 35.665 24.398 29.117 14.059 25.655 33.512 16.961 33.374" fill="#000" data-fill-palette-color="accent"/></g><g data-fill-palette-color="accent"><polygon points="57.083 12.513 55.583 12.513 55.583 5.771 48.842 5.771 48.842 4.271 57.083 4.271" fill="#000" data-fill-palette-color="accent"/></g><g data-fill-palette-color="accent"><rect x="3" y="54.229" width="54" height="1.5" fill="#000" data-fill-palette-color="accent"/></g><g data-fill-palette-color="accent"><g fill="#fff" data-fill-palette-color="accent"><rect x="14.554" y="50.207" width="12.859" height="1.5" fill="#000" data-fill-palette-color="accent"/></g></g><g data-fill-palette-color="accent"><g data-fill-palette-color="accent"><rect x="29.352" y="50.207" width="12.85" height="1.5" fill="#000" data-fill-palette-color="accent"/></g><g data-fill-palette-color="accent"><rect x="29.352" y="46.181" width="12.85" height="1.5" fill="#000" data-fill-palette-color="accent"/></g></g><g data-fill-palette-color="accent"><g data-fill-palette-color="accent"><rect x="44.141" y="50.207" width="12.859" height="1.5" fill="#000" data-fill-palette-color="accent"/></g><g data-fill-palette-color="accent"><rect x="44.141" y="46.181" width="12.859" height="1.5" fill="#000" data-fill-palette-color="accent"/></g><g data-fill-palette-color="accent"><rect x="44.141" y="42.153" width="12.859" height="1.5" fill="#000" data-fill-palette-color="accent"/></g><g data-fill-palette-color="accent"><rect x="44.141" y="38.132" width="12.859" height="1.5" fill="#000" data-fill-palette-color="accent"/></g></g></g></svg>
</svg>
</g>
</svg>
</svg>
</svg>
</svg>
<rect width="395.52" height="88.011" fill="none" visibility="hidden"/>
</g>
</svg>
</g>
</svg>
